<svg xmlns="http://www.w3.org/2000/svg" width="121" height="60" viewBox="0 0 121 60">
    <path fill="#4C2414" fill-rule="evenodd" d="M23.143 24.049l-4.469.92-.699-2.915c1.629-.076 3.36.088 4.877.313l.291 1.682zM33.98 39.692c1.433.74 2.22 1.322 2.816 1.683-9.336-11.93-3.512-14.399-3.512-14.399l-4.03 1.357c.011 1.91.159 6.171 4.726 11.359zM28.79 0c4.103 0 7.608 2.909 8.323 6.862.02.09 4.573 38.03 4.573 38.03l-9.864 1.436-3.588-8.896c2.115.683 4.16 2.073 6.103 4.025-11.422-13.222-3.68-18.665-3.68-18.665s-3.772.883-7.023 2.095l-.145-.684 6.787-1.624-6.8 1.401-.333-1.57c1.737.27 3.15.608 3.725.73-8.803-5.545-1.516-8.227-1.516-8.227l-.472.174-8.084 2.043-.754-3.515-.273-.035.165.93c-1.447-.56-2.456 1.658-3.926.906.353.32.679.502.991.604-.254.209-.524.337-.82.326 1.453.745 2.55-1.313 3.977-.821l.333 1.683-4.468 1.13a.874.874 0 0 0-.378.203l-.66.604c-.08.073-.005.205.1.174l5.487-1.681.182.963c-1.296-.3-2.968.32-4.755 1.222-2.408 2.675-2.161 4.928-.59 6.645l-2.347.484a1.876 1.876 0 0 0-.609.236l-1.063.661c-.13.081-.006.207.164.166l10.506-2.513.363 1.92c-2.518-1.378-8.884.545-8.884.545-2.953 3.61-1.264 7.474 1.308 10.772 1.287-.033 3.726.115 7.054 1.239a15.237 15.237 0 0 1 2.567-1.751l.568 3.005a36.44 36.44 0 0 1 1.737.857l-1.063-4.437c1.236-.487 2.46-.713 3.666-.698l1.29 7.462.277.187c.33.178.654.354.973.53l-1.72-8.134c.586.06 1.167.175 1.743.342l3.64 9.023-2.173.316a45.895 45.895 0 0 1-1.3-.648c-.389-.201-3.895-2.355-5.105-2.993a35.233 35.233 0 0 0-1.79-.881c-5.414-2.473-9.238-2.46-10.736-2.315a7.49 7.49 0 0 1 .04-.609l-.672-.229s-.05.338-.07.937c-.04 1.256.058 3.66 1.022 6.521l-.84-.121a16.971 16.971 0 0 1-.454-6.091c-1.116 1.375-1.63 3.542-1.63 3.542s.152.983.651 2.34L0 44.893S4.552 6.951 4.573 6.862C5.288 2.909 8.793 0 12.895 0c2.171 0 4.147.821 5.646 2.16a8.473 8.473 0 0 1 2.231 3.202h.14a8.474 8.474 0 0 1 2.233-3.203A8.447 8.447 0 0 1 28.789 0zm-5.48 25.01c-1.852.711-3.483 1.526-4.071 2.339l-.483-2.014 4.428-1.06.126.735zm-11.242 1.322c.085-2.927 2.484-4 5.345-4.24l.571 3.02-5.916 1.22zm9.725-10.151l-.008.002c-2.033.732-3.865 1.461-4.7 2.18l-.198-.822 4.875-1.493h.002l3.005-.92c-.98.35-2 .702-2.976 1.053zm-3.54 27.695c-2.108-.687-4.656-1.165-6.86-1.168a17.802 17.802 0 0 1-.162-1.479c.134-.005.273-.007.416-.007a14.162 14.162 0 0 1 2.43.224 23.323 23.323 0 0 1 4.156 1.073c.139.05.283.092.42.144.413.156.791.306 1.148.455 2.306.944 3.654 1.784 5.641 2.973.384.215.917.547 1.595.934l-1.365.198c-.235-.124-.45-.238-.626-.324-2.321-1.234-3.794-2.062-6.794-3.023zM76.92 6.193h3.218a.312.312 0 0 1 .291.43 2.279 2.279 0 0 0-.148.537c-.166 1.227-.264 3.036-.292 5.377 1.912.15 3.444.225 4.558.225 1.421 0 2.976-.074 4.627-.22-.028-2.286-.13-4.096-.304-5.385a2.263 2.263 0 0 0-.147-.535.314.314 0 0 1 .291-.43h3.218a.314.314 0 0 1 .29.43c-.073.18-.12.356-.147.538-.195 1.374-.294 3.93-.294 7.598 0 3.668.099 6.222.294 7.59.037.251.115.49.24.726a.312.312 0 0 1-.279.458H88.91a.313.313 0 0 1-.278-.458c.123-.237.202-.475.239-.729.198-1.39.3-3.993.305-7.736-3.823-.313-6.897-.246-9.19-.007.005 3.803.104 6.408.295 7.745.037.252.116.49.24.725a.313.313 0 0 1-.277.46h-3.43a.313.313 0 0 1-.277-.458c.124-.237.202-.475.24-.729.203-1.42.306-3.971.306-7.586 0-3.614-.103-6.171-.306-7.6a2.316 2.316 0 0 0-.148-.537.311.311 0 0 1 .291-.43zm-7.644 8.537c0 .149-.058.359-.336.517-.296.215-.761.414-1.4.593-.625.175-1.372.265-2.221.265-.27 0-.58-.024-.92-.07a9.077 9.077 0 0 1-1.235-.278 8.457 8.457 0 0 1-1.416-.548 6.985 6.985 0 0 1-1.4-.94 6.63 6.63 0 0 1-1.232-1.376c-.348-.518-.637-1.169-.858-1.935a9.068 9.068 0 0 1-.333-2.519c0-1.352.39-2.625 1.16-3.784.765-1.154 1.847-2.092 3.216-2.79C63.666 1.173 65.196.82 66.85.82c.829 0 1.725.135 2.662.399l4.823 1.36c.866.245 1.631.368 2.273.368 1.13 0 2.05-.338 2.736-1.007.248-.22.35-.28.465-.28.252 0 .422.172.422.429 0 .085-.031.197-.19.516-.52.873-1.026 1.524-1.512 1.949-.99.885-2.194 1.335-3.579 1.335-.212 0-.541-.018-.978-.054-.141 1.248-.347 3.765-.347 7.826 0 4.16.134 7.1.4 8.737.047.288.148.561.306.836a.25.25 0 1 1-.217.376l-4.284-.01a.25.25 0 0 1-.216-.126.247.247 0 0 1 0-.25c.158-.273.258-.546.307-.837.265-1.645.399-4.584.399-8.735 0-4.175-.178-7.327-.53-9.375l-.325-.168a8.228 8.228 0 0 0-.466-.233 32.14 32.14 0 0 1-.447-.205 2.779 2.779 0 0 0-.458-.175l-.485-.124a6.127 6.127 0 0 0-.528-.11 3.247 3.247 0 0 0-.508-.038c-1.2 0-2.32.215-3.328.639-.998.42-1.814 1.042-2.424 1.851a4.48 4.48 0 0 0-.909 2.756c0 .86.11 1.654.327 2.36.215.7.504 1.283.857 1.73.36.457.76.855 1.188 1.186.423.328.868.58 1.323.749.463.174.887.302 1.26.38.366.075.7.114.992.114 1.082 0 1.934-.171 2.534-.507.266-.163.387-.197.482-.197.2 0 .401.137.401.445zm24.628-7.407a2.592 2.592 0 0 0-.203-.688.314.314 0 0 1 .286-.442h10.029c.172 0 .312.14.313.31l.013 2.27a.314.314 0 0 1-.505.25c-1.328-1.03-4.483-1.151-6.427-1.122-.124 1.168-.19 2.923-.193 5.225.268.017.856.034 2.146.034 1.53 0 2.124-.156 2.353-.288a.314.314 0 0 1 .47.271v2.117a.313.313 0 0 1-.466.273 1.229 1.229 0 0 0-.286-.12c-.37-.097-1.067-.147-2.071-.147-.513 0-1.042.018-1.571.052-.281.018-.461.034-.576.047v2.003c0 1.45.019 2.561.057 3.3.021.423.059.81.11 1.156 1.942.031 5.12-.088 6.454-1.122a.313.313 0 0 1 .505.25l-.013 2.27c-.001.17-.141.31-.313.31h-9.972a.313.313 0 0 1-.281-.452c.093-.19.156-.389.186-.591.15-1.043.226-3.588.226-7.562 0-3.804-.091-6.361-.271-7.604zm-27.486 27.04c0 3.044.097 5.297.289 6.696.062.456.488 2.53.492 2.55a.311.311 0 0 1-.306.376h-3.736a.314.314 0 0 1-.307-.376c.005-.02.43-2.094.493-2.55.191-1.4.289-3.654.289-6.696 0-2.28-.09-4.092-.267-5.388-.062-.45-.497-2.224-.502-2.242a.312.312 0 0 1 .305-.387h3.714a.311.311 0 0 1 .304.387c-.004.018-.44 1.793-.502 2.242-.176 1.295-.266 3.108-.266 5.388zm54.13 5.899c.11.724.435 3.268.45 3.376a.313.313 0 0 1-.31.353l-3.584.016h-.001a.313.313 0 0 1-.313-.327c0-.024.106-2.45.106-3.129 0-2.557-.139-5.397-.413-8.455l-.234.534c-.333.758-.571 1.303-.717 1.632-.15.339-.4.899-.754 1.68a204.16 204.16 0 0 1-2.043 4.4c-.442.927-.907 1.9-1.397 2.919a2.383 2.383 0 0 1-.163.299.941.941 0 0 1-.776.4c-.313 0-.752-.137-1.067-.788-2.084-4.105-3.93-7.939-5.496-11.412-.027.396-.06.854-.098 1.376a579.99 579.99 0 0 0-.176 2.426 83.503 83.503 0 0 0-.163 3.08c-.013.582.007 1.32.058 2.195.024.405.24 2.274.326 2.733.047.046.046.11.046.201a.314.314 0 0 1-.315.313h-.019l-3.163-.015a.312.312 0 0 1-.3-.394c.006-.023.616-2.29.757-2.96.193-.843.383-2.27.564-4.245.18-1.986.274-3.805.274-5.406 0-.462-.09-1.709-.154-2.023-.073-.356-.377-2.402-.39-2.49a.313.313 0 0 1 .31-.359l3.418-.007c.409 0 .662.258.662.673 0 .048.022.252.308.9 1.912 4.134 3.749 7.823 5.465 10.973 2.666-5.965 4.262-9.582 4.747-10.755.07-.158.155-.388.243-.622.338-.904.418-1.118.704-1.118l2.835-.006a.312.312 0 0 1 .314.316s-.04 4.121-.04 4.518c0 4.023.168 7.117.499 9.198zm-59.412-.165a7.15 7.15 0 0 1-1.408 2.25c-.618.672-1.435 1.214-2.432 1.61-.988.394-2.116.593-3.352.593-1.985 0-3.646-.593-4.938-1.763-1.3-1.178-1.96-2.645-1.96-4.362 0-.855.146-1.643.432-2.34.29-.7.676-1.275 1.15-1.707a5.225 5.225 0 0 1 1.554-.982 4.634 4.634 0 0 1 1.746-.346c.134 0 .259.042.361.118a.47.47 0 0 1 .011.763.583.583 0 0 1-.372.133c-.372 0-.76.093-1.152.276a4.31 4.31 0 0 0-1.145.802c-.35.335-.642.79-.872 1.352a4.963 4.963 0 0 0-.347 1.882c0 1.223.517 2.231 1.582 3.083 1.071.858 2.392 1.292 3.924 1.292a4.18 4.18 0 0 0 1.884-.426 4.103 4.103 0 0 0 1.4-1.098c.365-.457.652-.961.852-1.5.2-.535.3-1.07.3-1.59a4.99 4.99 0 0 0-.247-1.583 5.445 5.445 0 0 0-.621-1.304 5.851 5.851 0 0 0-1.017-1.117 12.821 12.821 0 0 0-1.266-.981c-.408-.274-.919-.59-1.519-.94a23.053 23.053 0 0 1-1.049-.639c-.25-.164-.578-.392-.986-.688-.419-.3-.76-.593-1.017-.87-.25-.269-.507-.585-.765-.938a4.001 4.001 0 0 1-.602-1.21 4.701 4.701 0 0 1-.192-1.35c0-1.63.572-2.891 1.7-3.75 1.103-.84 2.637-1.265 4.561-1.265.567 0 1.2.057 1.88.169.65.107 1.089.161 1.303.161.16 0 .324-.041.489-.12a.324.324 0 0 1 .307.013.315.315 0 0 1 .152.264v3.929c0 .153-.11.284-.262.308a.312.312 0 0 1-.348-.207c-.257-.755-.746-1.454-1.455-2.079-.742-.656-1.522-.988-2.317-.988-.802 0-1.444.27-1.963.823-.525.56-.78 1.282-.78 2.206 0 .397.092.752.283 1.085.198.343.492.673.877.977.402.322.82.616 1.242.877.43.266.955.59 1.577.972a22.08 22.08 0 0 1 1.607 1.074c.536.395 1.01.8 1.408 1.204.398.404.784.873 1.148 1.394.372.534.658 1.139.85 1.798.192.654.289 1.365.289 2.112 0 .913-.163 1.795-.485 2.623zm16.55 3.771a.311.311 0 0 1-.244.117h-3.49a.312.312 0 0 1-.307-.378c.111-.52.198-1.289.255-1.798.028-.249.05-.443.067-.537.101-.619.169-1.222.2-1.792.033-.578.05-1.622.05-3.102 0-.298-.043-.541-.128-.726-.938-1.844-2.396-4.102-4.325-6.7a35.155 35.155 0 0 0-1.664-2.047.313.313 0 0 1 .233-.52c4.499-.019 4.5-.02 4.61.102.06.065.089.152.08.24-.055.587.021 1.152.208 1.55.176.378.48.934.903 1.65.428.727.802 1.346 1.12 1.86.275.443.675 1.08 1.197 1.914.297-.479.701-1.133 1.211-1.963a192.17 192.17 0 0 1 1.716-2.749c.464-.725.847-1.29 1.14-1.68.238-.316.486-.624.736-.916.06-.07.146-.109.238-.109h1.675a.314.314 0 0 1 .231.525 22.8 22.8 0 0 0-1.283 1.54c-.213.281-.49.674-.823 1.168-.338.501-.645.967-.92 1.398l-1.271 2c-.571.9-1.022 1.603-1.351 2.109-.36.54-.543 1.05-.543 1.518 0 1.543.013 2.589.038 3.105.025.518.086 1.066.18 1.626a13 13 0 0 1 .065.529c.058.51.145 1.282.258 1.804a.313.313 0 0 1-.062.262zm20.838-3.107a6.365 6.365 0 0 1-1.326 1.915c-.538.522-1.233.942-2.07 1.246-.83.302-1.789.455-2.85.455-2.462 0-4.314-.728-5.505-2.162-1.176-1.414-1.814-3.552-1.896-6.358a197.347 197.347 0 0 1-.092-3.005 90.398 90.398 0 0 1-.024-2.139c0-2.189-.049-2.954-.09-3.21a1.84 1.84 0 0 0-.355-.818.312.312 0 0 1 .251-.5h3.622c.118 0 .225.066.278.171a.31.31 0 0 1-.024.325 1.881 1.881 0 0 0-.346.821c-.073.423-.11 1.5-.11 3.211 0 .565.011 1.47.034 2.716.023 1.255.035 1.985.035 2.193.022 2.263.447 4.028 1.263 5.24.8 1.189 1.867 1.766 3.257 1.766 1.037 0 1.928-.296 2.65-.878.732-.593 1.28-1.404 1.624-2.409.353-1.028.533-2.248.533-3.624 0-.651-.004-1.41-.011-2.273a232.04 232.04 0 0 1-.012-1.775c0-1.812-.086-3.204-.258-4.136a2.149 2.149 0 0 0-.337-.86.311.311 0 0 1 .26-.488h2.888a.314.314 0 0 1 .237.52c-.231.263-.37.539-.416.821-.15.797-.225 2.188-.225 4.143 0 1.681-.008 3.044-.023 4.087a17.32 17.32 0 0 1-.233 2.665 9.47 9.47 0 0 1-.729 2.34zM5.172 56.354c.061-.091.03-.181.03-.282-.09-.252-.151-.463-.302-.685-.06-.03-.09-.12-.182-.06-.222.141-.16.463-.231.684l-.092.181c-.03.122.06.192.152.222.222.03.474.09.625-.06zm1.272 1.188c.151.1.312.161.433.252.122.13-.06.222-.1.312-.273.03-.525-.03-.808.02-.06 0-.121 0-.181-.03-.07 0-.101 0-.162.03a.634.634 0 0 1-.403-.06c-.03 0-.09-.101-.09-.191.06-.151.251-.121.372-.212a.226.226 0 0 0 .06-.121c-.019-.282-.019-.624-.302-.755-.14-.06-.373.03-.524-.06-.162.06-.283.03-.444.09-.091.211-.253.433-.253.675-.03.191.192.251.373.251.031 0 .091.04.121.07.061.092.03.243-.03.243-.12.06-.282.06-.403.06a.456.456 0 0 1-.162.06c-.151 0-.343.061-.494 0-.06 0-.152 0-.222.03-.151.031-.303.031-.434-.04-.12-.09-.15-.272.01-.372.182-.121.434-.09.586-.302.161-.252.222-.494.353-.745v-.091c.12-.09.12-.282.191-.403l.061-.03c.03-.342.222-.594.343-.866a.5.5 0 0 0 .1-.312c0-.06.092-.091.092-.161 0-.12-.03-.243.04-.333.09-.07.12-.131.212-.191.13-.06.252-.181.353-.302.03-.03.15-.03.182 0 .06.09.12.18.12.282 0 .493.243.896.364 1.37v.12c.03.121.151.192.182.313 0 .281.12.492.221.745v.09c.03.071.061.131.061.222.03.12.09.282.182.342zm5.247-1.51c.192.03.374.07.565.13.122.06 0 .212-.131.212-.15.03-.342.06-.373.192-.161.301-.313.896.151 1.056.152.031.061.243-.07.343h-.121c-.121.06-.223.15-.343.182h-.121c-.162.09-.344.06-.535.12-.222.03-.404-.1-.626-.01-.212-.06-.403-.12-.615-.192H9.25c-.061-.03-.121-.03-.151-.12h-.06c-.162-.131-.344-.221-.435-.383-.1-.182-.252-.342-.373-.523v-.131c-.152-.342-.121-.716-.121-1.088 0-.06.101-.09.101-.151.03-.222.06-.463.252-.624.03-.03.03-.091.06-.151.1-.091.162-.192.253-.313.03-.03.09-.03.13-.06.212-.18.374-.432.657-.493.211-.061.433-.03.655-.061.182-.06.333.01.525.01.03 0 .09.061.121.061h.1c.03.03.062.06.092.06h.09c.061.04.091.131.152.131.161-.06.282-.252.474-.182.09.061.06.182.06.273.03.342.051.725-.1 1.027 0 .03-.131.091-.192 0-.091-.151-.091-.312-.181-.463a.759.759 0 0 0-.313-.282.963.963 0 0 0-.273-.161 1.59 1.59 0 0 0-.534 0h-.091c-.122.06-.252.09-.374.15-.12.06-.191.182-.312.273-.03.03-.03.07-.03.1-.314.302-.323.736-.384 1.149-.03.18.06.372.09.583v.192c.092.312.273.523.526.745.06.06.18.03.242.07.252.151.625.222.777-.06.161-.373.232-.806.14-1.208-.191-.071-.413-.01-.534-.192 0-.06-.09-.13.03-.161v-.06c.475-.061.908-.051 1.372.01zm6.51-2.125c.12 0 .15.161.12.251-.06.192-.221.253-.373.283-.09 0-.151-.01-.222.06-.03.03-.03.06-.09.09s-.03.121-.06.152c-.041.564.019 1.087-.011 1.651-.04.12-.07.242-.1.373-.062.12-.122.241-.193.372v.151c-.09.151-.12.343-.252.464-.182.15-.343.342-.596.402-.181.03-.373.03-.524.121-.343-.03-.686-.04-.999-.19h-.12c-.122-.162-.314-.223-.374-.415-.03-.12-.091-.18-.121-.281-.06-.211-.06-.403-.06-.615-.031-.473-.051-.906.01-1.369 0-.252-.031-.534-.02-.775 0-.04-.041-.07-.071-.101-.132-.14-.404-.06-.525-.252-.06-.09-.06-.21 0-.242.07-.07.192-.07.282-.1.313.01.596-.02.908.01.061.03.091.03.152.03.151-.03.283-.09.434-.09.06 0 .16.07.222.13.06.092.03.182 0 .282-.1.091-.283.061-.384.151-.06.091-.09.212-.121.313-.03.09.03.18 0 .272-.1.594-.04 1.148-.05 1.741 0 .061.07.132.1.162-.01.15.091.272.122.433.121 0 .151.151.272.191.131.03.222.09.343.12.121.032.253.032.373 0a.559.559 0 0 0 .374-.24c.03 0 .07 0 .1-.031.03-.06.091-.12.152-.15v-.132c.03-.09.1-.211.13-.301v-.222c.031-.06.062-.152.092-.222.04-.372.13-.745-.08-1.087 0-.212.03-.464 0-.685-.03-.181-.243-.212-.404-.212-.121-.04-.151-.13-.213-.22-.03-.092.062-.253.122-.253.222-.06.443-.03.656-.02.343.03.655 0 .998 0zm4.42 2.87c.192-.373.263-.776.141-1.148a2.225 2.225 0 0 0-.313-.665 1.555 1.555 0 0 0-1.21-.594c-.03 0-.06.03-.12 0-.062 0-.122.06-.163.12a.976.976 0 0 0-.06.565c.03.211 0 .402-.07.614-.031.312 0 .594 0 .876-.042.06 0 .12-.01.182 0 .03-.032.03-.032.06.061.13.031.221.031.342.03.1-.06.192-.03.313.03.13 0 .281.152.372.09.07.221.04.312.04.03 0 .091-.06.121-.06h.162c.121-.061.282-.091.403-.192.151-.12.282-.24.434-.362v-.06c.101-.101.131-.191.191-.282l.061-.03v-.091zm.949-1.239c0 .03.06.091.06.121.03.282.09.564.02.846-.03.181-.09.373-.221.553v.091c-.152.221-.253.464-.495.594l-.03.061c-.283.09-.505.272-.787.332-.182.03-.344.06-.525.121-.162.03-.312-.03-.474-.06-.181-.041-.373.09-.555.08-.131 0-.282-.06-.404-.03-.191 0-.343.06-.535.03-.151-.07-.282-.07-.403-.19 0-.283.403-.243.625-.304.283-.03.223-.341.283-.533 0-.09 0-.181-.03-.282-.06-.241.1-.523-.02-.776.12-.463.07-.956.07-1.43 0-.09-.06-.21-.12-.311-.031-.03-.061-.06-.092-.06-.252.03-.595 0-.625-.313.06 0 .06-.06.09-.09.222-.06.444 0 .657-.06.06 0 .13.03.16.03.243-.03.465-.061.718-.061.181-.02.403-.02.584-.02.07.03.101.03.162.06.242.03.495 0 .747.13h.09c.343.222.646.505.837.877l.092.09c.06.192.151.313.12.504zm3.798 1.09c.06-.088.03-.176.03-.274-.09-.245-.152-.45-.302-.666-.061-.03-.091-.118-.182-.06-.222.138-.161.451-.232.667l-.09.176c-.031.118.06.187.15.216.222.03.474.088.626-.059zm1.271 1.156c.151.099.312.157.434.246.12.127-.06.216-.101.303-.273.03-.525-.029-.807.02-.06 0-.122 0-.182-.029-.07 0-.1 0-.161.03a.649.649 0 0 1-.404-.06c-.03 0-.09-.098-.09-.186.06-.147.252-.117.372-.206a.217.217 0 0 0 .061-.118c-.02-.274-.02-.607-.302-.734-.141-.06-.373.03-.525-.06-.161.06-.283.03-.443.09-.092.205-.253.42-.253.656-.03.186.192.245.374.245.03 0 .09.039.12.068.061.089.03.236-.03.236-.121.058-.282.058-.403.058a.465.465 0 0 1-.162.06c-.151 0-.343.058-.494 0-.06 0-.151 0-.222.029-.151.03-.303.03-.433-.04-.122-.088-.152-.264.01-.362.181-.118.433-.089.585-.294.161-.245.221-.48.353-.725v-.089c.12-.087.12-.274.19-.391l.062-.03c.03-.333.222-.578.343-.843.07-.098.1-.186.1-.304 0-.058.092-.088.092-.157 0-.117-.031-.235.04-.323.09-.068.12-.128.212-.186.13-.059.252-.176.353-.294.03-.03.15-.03.181 0 .06.088.122.176.122.275 0 .48.241.872.362 1.332v.118c.03.118.152.186.182.304 0 .274.121.48.222.725v.088c.03.069.06.127.06.216.03.117.091.274.182.332zm5.812-3.488c.09.186.09.373.15.549.03.156-.01.333.061.49.03.059-.01.117-.07.147-.092.088-.213.03-.243-.03-.13-.156-.252-.304-.373-.43a1.031 1.031 0 0 0-.716-.216c-.03 0-.09-.06-.121-.06-.06 0-.161.06-.191.089 0 .06-.061.118-.061.176-.04.607-.07 1.216-.01 1.823-.101.294-.041.598-.041.902 0 .059.03.156.091.216.151.087.313.058.464.156.122.117.06.295-.09.295-.374 0-.717-.089-1.09-.03-.192.02-.343.088-.535.049-.09-.03-.151-.147-.06-.206.121-.059.313-.088.373-.215.1-.236.1-.48.07-.725-.03-.06-.03-.119-.03-.177.06-.216-.03-.392 0-.608a.989.989 0 0 0 .07-.333c-.06-.275.031-.51 0-.784-.06-.186.011-.421-.18-.55-.172-.107-.374-.057-.555 0-.283.06-.596.177-.727.481l-.06.03v.059c-.09.058-.12.205-.252.176-.182-.058-.122-.274-.122-.422.072-.215.102-.45.132-.666 0-.029.06-.088.06-.117v-.089c.07-.029.132 0 .192 0 0 .089.09.118.151.148.505.068 1 .01 1.493.01.192 0 .414-.02.595.01.313 0 .625-.09.938 0 .152-.06.282-.119.374-.266.03-.029.12 0 .181 0 .1 0 .132.089.132.118zm6.305.362c-.162.03-.343 0-.414.118-.181.245-.12.579-.161.843 0 .029.06.098.06.128 0 .636.03 1.263-.04 1.9v.216c0 .03.03.059.03.059.152.06.313.128.495.128.121.029.191.147.181.244-.03.059-.09.118-.151.118-.625-.04-1.21.02-1.836-.02-.09-.088-.09-.294.03-.362.132-.03.283.068.374-.02.03-.068.1-.098.1-.127.091-.334 0-.667.031-.99 0-.098-.06-.186-.121-.186-.555-.157-1.09-.07-1.644-.07-.101 0-.132.09-.162.177-.06.363-.04.696-.04 1.03.03.058.06.176.162.186.18 0 .433.03.524.216 0 .058-.03.117-.06.176-.071.088-.162 0-.223-.03-.343-.068-.685.02-1.028.02h-.213c-.161-.06-.343 0-.503-.03-.092-.068-.061-.185 0-.245.16-.117.342-.058.503-.176a.248.248 0 0 0 .062-.127c0-.236.04-.48-.021-.755 0-.059.03-.117.03-.146 0-.667.04-1.333-.08-2-.03-.275-.404-.186-.586-.333-.1-.127-.06-.304.092-.363.09-.03.222.03.312.06.121 0 .222-.09.343-.06.03.03.06.06.09.06.404.038.807-.11 1.211.067.071 0 .06.157 0 .217-.15.146-.524.058-.595.263-.03.138-.09.245-.03.364 0 .068 0 .127-.03.186-.03.206.06.421.06.637-.01.147.182.117.272.147.313.068.625-.05.938.01.213.029.404 0 .626-.03.121-.03.152-.088.152-.177 0-.146-.03-.274.04-.42-.132-.246.03-.55-.121-.756-.162-.186-.435-.127-.625-.254-.031-.03-.061-.148-.031-.206.03-.03.06-.058.06-.088.222-.098.444 0 .656.059.313.068.625-.059.938-.05.06 0 .151 0 .212-.029.1-.03.222.03.282.118.061.127-.03.245-.151.303zm5.621.167c-.121.578 0 1.088-.131 1.666 0 .089-.03.206.03.304 0 .03 0 .088-.03.117-.04.334-.01.637.08.941.06.304.505.117.747.274.06.03.06.188-.03.275-.687.02-1.403.108-2.089.039-.06 0-.19.03-.252-.03-.03-.058-.03-.176 0-.205a.772.772 0 0 1 .535-.147c.03 0 .091-.03.121-.069.232-1.048.141-2.048.152-3.077 0-.058-.061-.127-.122-.186-.03-.03-.06-.059-.09-.059-.131 0-.283 0-.414-.068-.09-.089-.273-.206-.152-.363.374.01.717.01 1.09-.02h.222c.12.03.221.03.343.03.06-.03.15-.059.221-.088.152 0 .343-.059.465.04.09.117.06.362-.1.42-.152.059-.374.03-.525.118-.03.03-.061.06-.07.088zm4.469 1.255c.273.127.464.362.585.636.122.363.051.755-.1 1.089-.192.303-.475.539-.848.597-.06.03-.121.098-.192.098-.494-.01-1.059-.01-1.422-.382-.12-.294-.09-.627-.09-.931 0-.127.13-.157.222-.118 0 .03.06.088.06.118.09.216.151.45.333.637 0 .03 0 .058.03.088.03 0 .03.03.061.03.04.039.04.098.07.127.06.029.122-.03.182 0 .252.117.535.058.776-.059.132-.205.253-.391.324-.598.03-.157-.092-.274-.162-.43-.03 0-.06 0-.09-.03a.531.531 0 0 0-.243-.206c-.283-.069-.535-.069-.776-.196a4.764 4.764 0 0 1-.565-.392c-.151-.157-.212-.392-.212-.608 0-.245.04-.48.161-.666.03-.03.06-.059.06-.088a.5.5 0 0 1 .132-.089v-.058c.06 0 .09-.03.12-.088.102-.07.223-.098.313-.158.132-.058.222-.058.343-.087.162 0 .283-.03.434.039.161.03.283.118.444.088.121-.03.242-.176.373-.059.03.099.06.186.03.275-.04.058-.04.117-.07.156 0 .236 0 .48-.162.657-.121.06-.151-.117-.181-.177-.09-.156-.121-.304-.212-.46a.284.284 0 0 0-.161-.118c-.303-.156-.747-.127-.958.177-.071.088-.04.176-.102.264-.06.128.061.216.061.334 0 .097.12.127.152.156.1.06.222.118.312.158.162 0 .283.03.403.088.061 0 .162 0 .222.029a.92.92 0 0 0 .343.157zm4.44.029c.282-.303.383-.725.232-1.118v-.087c-.06-.187-.252-.275-.434-.344-.222-.03-.434-.03-.626.147.031.128-.1.246 0 .364-.1.244-.1.49-.07.764.03.118.06.235.06.362.031.147.182.206.344.177.181-.06.343-.147.494-.265zm1.856 1.95c.09.059.211.176.12.304-.06.059-.18.059-.282.088-.463.03-.928-.068-1.401-.04-.182 0-.273-.186-.182-.332.03-.059.161-.088.191-.187.031-.117-.06-.205-.12-.303a1.679 1.679 0 0 1-.404-.539l-.06-.01c-.06-.147-.222-.206-.344-.275-.12-.029-.221.06-.221.157 0 .334-.06.667.03 1 .06.147.242.117.373.176.09.07.151.186.06.245-.252.118-.564.06-.817.06-.121-.03-.282 0-.403.029-.03 0-.03-.04-.06-.04-.162.06-.343.03-.495.03-.1-.03-.161-.089-.161-.176 0-.04.07-.128.131-.128.152 0 .343 0 .403-.117a.756.756 0 0 0 .131-.393c0-.176-.06-.392-.03-.578v-.45c-.03-.089-.03-.206-.03-.305.07-.303.04-.568.04-.872v-.363c0-.029.03-.058.03-.087-.03-.069-.06-.157-.12-.216s-.122-.059-.182-.098c-.222 0-.464 0-.565-.216 0-.029.04-.058.07-.088.213-.088.435.01.646-.049.384-.088.727-.088 1.1-.118.373 0 .716 0 1.09.099.18.03.433.098.524.333.03.03.06.03.09.03v.097c.06.088.122.147.122.235 0 .373.09.706-.131 1.03-.062.058-.092.097-.152.156-.04 0-.07 0-.1.03-.122.117-.313.088-.374.206-.161.215.12.362.242.548.03.03.03.088.06.118.072.03.102.088.162.127.06.059.091.147.151.206v.058c.06.157.182.246.313.344.121.058.242.117.373.216.06.029.121.058.182.058zm3.239-1.43c.06-.09.03-.177.03-.275-.09-.245-.15-.45-.302-.666-.06-.03-.091-.118-.182-.06-.222.138-.16.451-.232.667l-.09.176c-.03.118.06.187.15.216.223.03.474.088.626-.059zm1.271 1.155c.152.099.312.157.434.246.121.127-.06.216-.1.303-.273.03-.525-.029-.808.02-.06 0-.121 0-.182-.029-.07 0-.1 0-.161.03a.65.65 0 0 1-.404-.06c-.03 0-.09-.098-.09-.186.06-.147.252-.117.373-.206a.218.218 0 0 0 .06-.118c-.02-.274-.02-.607-.302-.734-.141-.06-.373.03-.525-.06-.161.06-.282.03-.443.09-.091.205-.253.42-.253.656-.03.186.192.245.374.245.03 0 .09.039.12.068.061.089.031.236-.03.236-.12.058-.282.058-.403.058a.464.464 0 0 1-.162.06c-.15 0-.343.058-.494 0-.06 0-.151 0-.222.029-.151.03-.302.03-.433-.04-.121-.088-.151-.264.01-.362.182-.118.434-.089.585-.294.161-.245.222-.48.353-.725v-.089c.12-.087.12-.274.191-.391l.061-.03c.03-.333.222-.578.343-.843.07-.098.1-.186.1-.304 0-.058.092-.088.092-.157 0-.117-.03-.235.04-.323.09-.068.12-.128.212-.186.13-.059.252-.176.352-.294.031-.03.152-.03.183 0 .06.088.12.176.12.275 0 .48.242.872.364 1.332v.118c.03.118.151.186.181.304 0 .274.121.48.222.725v.088c.03.069.06.127.06.216.031.117.091.274.182.332zm5.449-.588c.03.06.06.118.06.177.03.274-.1.55 0 .823l-.07.03v.088c-.152.147-.374.088-.555.088a.367.367 0 0 1-.162.059c-.283-.03-.524-.03-.807-.098-.09 0-.151.03-.222.059-.06 0-.121 0-.181-.03-.162 0-.343.03-.505.03-.494-.01-.988.078-1.493-.01-.06 0-.12-.098-.09-.186.13-.235.403-.148.655-.177.122-.03.252-.147.252-.274-.06-.598.07-1.205.01-1.813-.03-.274-.02-.568-.02-.843 0-.088.06-.157.06-.245-.03-.058-.06-.147-.12-.176-.182-.098-.373-.04-.595-.069-.121-.029-.273-.127-.212-.274.03-.059.09-.117.151-.117.504-.03.999.038 1.503-.02.06 0 .122 0 .182.029h.222c.464.01.958-.02 1.432.01.06.03.181.03.212.098.12.264-.09.54-.03.813.03.059.03.118.03.177-.04.068-.04.156-.101.186-.121.03-.181-.03-.211-.128-.092-.264-.222-.538-.435-.666-.313-.186-.655-.128-.998-.098-.464.03-.252.608-.343.941-.04.147-.04.333-.04.51.03.185.312.244.464.127.16-.088.343 0 .504-.118.06-.088.181-.157.181-.245.01-.117.01-.236.102-.333.06-.03.12-.089.221-.059.06.03.122.098.122.186-.031.059-.061.118-.102.177 0 .068.03.128.03.157-.03.362-.06.725-.1 1.117-.03.087-.122.117-.212.087-.06-.058-.09-.185-.09-.274-.031-.117-.091-.274-.193-.303-.211-.118-.463-.06-.716-.128-.12 0-.181.128-.181.216 0 .205-.01.392.02.608.03.235-.182.539.03.725.06.058.152.058.252.088.091.03.152-.03.212-.059.06 0 .161.059.222.03.09-.03.182.068.283.039.03-.03.09-.06.12-.06.283 0 .626-.029.777-.303.101-.205.192-.422.384-.569h.09zm5.216 0c.03 0 .09 0 .12.03.091.333.121.666.091 1.029-.04.06-.1.118-.161.118h-.494c-.132 0-.222.029-.343.059-.222.059-.404.02-.626.02-.343-.03-.715.029-1.058 0-.122-.04-.253-.01-.374-.01-.03 0-.09-.03-.122-.03-.342.059-.786.176-1.058-.069-.061-.088.06-.177.121-.206.13-.058.282-.03.403-.03.101 0 .161-.087.192-.146.06-.098.09-.216.06-.304.01-.216-.02-.46.04-.666.03-.186-.03-.333.03-.52 0-.029-.03-.058-.03-.088.101-.392.041-.754.011-1.117.13-.176.07-.422-.09-.549-.142-.107-.304-.058-.495-.088-.09-.03-.182-.156-.09-.216.09-.029.221-.058.312-.058.06.03.15.03.212.03.565-.148 1.13-.08 1.684-.08.06 0 0 .128.091.128-.06.088-.09.177-.182.206-.16.03-.282 0-.444.03-.151.03-.151.205-.181.332-.07.451-.04.872-.07 1.294 0 .04 0 .098-.01.127 0 .03-.03.03-.03.06.06.215.06.42.03.637-.03.274-.071.538-.01.813.03.215.433.215.625.127.151.059.313 0 .463 0 .031 0 .031.03.061.03.252-.059.504.038.726-.118.152-.147.253-.353.404-.51.09-.087.09-.206.192-.264zm4.135 1.016a.94.94 0 0 0 .38-.181c.114-.089.209-.191.284-.307.033-.052.062-.098.089-.137a.788.788 0 0 1 .105-.122l.106-.17a.871.871 0 0 0 .088-.184.958.958 0 0 1 .138-.252.54.54 0 0 0 .106-.275c0-.042.004-.08.011-.114l.029-.114c.016-.063.027-.131.032-.204a.705.705 0 0 0-.012-.2.271.271 0 0 0-.081-.147c-.04-.036-.101-.052-.182-.047a.368.368 0 0 0-.263.091c-.079.065-.15.135-.214.208-.022.01-.042.02-.061.032a.97.97 0 0 1-.061.031.189.189 0 0 0-.064.063l-.033.079-.032.078a.76.76 0 0 1-.122.173 1.083 1.083 0 0 0-.12.158 3.831 3.831 0 0 0-.284.817.991.991 0 0 1-.045.106c-.019.04-.034.073-.044.099v.251c.01.064.033.128.068.197.036.068.096.092.182.07zm.79.093a3.866 3.866 0 0 1-.45.198.32.32 0 0 1-.19.02.52.52 0 0 0-.198-.004.36.36 0 0 1-.275-.076 1.521 1.521 0 0 1-.227-.192c-.01-.011-.015-.025-.012-.043a.094.094 0 0 0-.012-.06.786.786 0 0 1-.073-.239 1.396 1.396 0 0 1-.012-.244c.002-.082.01-.162.02-.244.011-.08.016-.163.016-.248a.691.691 0 0 0 .081-.243l.033-.267a.114.114 0 0 1 .052-.067.123.123 0 0 0 .053-.05c.075-.138.15-.263.222-.379.073-.115.163-.228.272-.338v-.047a.304.304 0 0 1 .153-.141c.118-.063.237-.127.356-.193a.596.596 0 0 1 .389-.067c.07.016.14.034.21.055.07.022.135.046.194.075a.76.76 0 0 1 .162.106.35.35 0 0 1 .105.165c.017.052.035.104.057.153.022.05.037.101.049.154a.908.908 0 0 1-.008.495 4.283 4.283 0 0 1-.13.523c-.054.17-.114.34-.178.507a.204.204 0 0 0-.126.142.303.303 0 0 1-.14.184.065.065 0 0 0-.033.02.85.85 0 0 1-.36.345zm5.102-5.016a.71.71 0 0 1 .21.166c.06.068.087.144.081.228 0 .073-.024.14-.073.2a.278.278 0 0 1-.186.106.252.252 0 0 1-.19-.01.183.183 0 0 1-.11-.14.808.808 0 0 0-.092-.184.344.344 0 0 0-.158-.13 1.022 1.022 0 0 0-.356 0 .327.327 0 0 0-.114.052.788.788 0 0 0-.08.066 1.243 1.243 0 0 0-.207.303 4.33 4.33 0 0 0-.141.335.303.303 0 0 1-.081.145.22.22 0 0 0-.065.161.324.324 0 0 1-.08.165.754.754 0 0 0-.114.165.397.397 0 0 0-.025.098.562.562 0 0 1-.024.106c0 .032.012.053.037.063.024.011.047.016.068.016l.223.016c.073.005.147.002.222-.008a.365.365 0 0 1 .17.04.136.136 0 0 1 .05.11.205.205 0 0 1-.033.117.405.405 0 0 1-.195.099c-.07.013-.143.019-.218.019-.075 0-.151-.005-.227-.015a1.067 1.067 0 0 0-.226-.008.106.106 0 0 0-.07.023.167.167 0 0 0-.044.055c-.086.147-.15.295-.19.445-.04.149-.098.297-.174.444-.032.073-.06.145-.085.216-.024.07-.042.148-.052.232a.347.347 0 0 1-.053.114.351.351 0 0 0-.052.114.906.906 0 0 1-.065.224.938.938 0 0 1-.114.2l-.028.071a.229.229 0 0 0-.012.079.223.223 0 0 1-.077.13.224.224 0 0 0-.077.13c-.043.21-.115.397-.214.566-.1.167-.188.343-.263.526a.15.15 0 0 1-.012.06.116.116 0 0 0-.012.042c-.087.131-.187.248-.3.35a2.46 2.46 0 0 1-.38.28 7.194 7.194 0 0 1-.64.117c-.22.032-.434 0-.639-.094a.974.974 0 0 1-.178-.125c-.06-.053-.062-.121-.008-.205a.121.121 0 0 0 .048-.07.138.138 0 0 1 .04-.072.07.07 0 0 1 .041-.019.076.076 0 0 0 .04-.02c.055.105.131.196.231.275.1.078.215.105.345.078.14-.03.265-.08.376-.148a.895.895 0 0 0 .279-.276c.092-.141.169-.288.23-.44.063-.152.131-.299.206-.44v-.079c.028-.031.054-.063.078-.094a.31.31 0 0 0 .052-.11c0-.027.004-.044.012-.056.008-.01.013-.028.013-.055.086-.162.16-.326.223-.49.061-.166.125-.335.19-.508a.507.507 0 0 1 .064-.086c.027-.106.06-.201.101-.287a1.73 1.73 0 0 0 .102-.287l.04-.016c.033-.115.075-.223.13-.323.053-.1.07-.212.048-.337 0-.053-.032-.083-.097-.091a.57.57 0 0 0-.178.004h-.34c-.065 0-.098-.028-.098-.082 0-.056.006-.104.017-.146a.11.11 0 0 1 .056-.067.677.677 0 0 1 .09-.035c.108-.01.214-.01.319.004.105.013.212.014.32.003a.094.094 0 0 0 .06-.023.224.224 0 0 1 .07-.039c.053-.026.083-.074.089-.142a.393.393 0 0 1 .056-.181c.027-.062.052-.13.077-.204a.465.465 0 0 1 .117-.189.796.796 0 0 1 .138-.302c.065-.087.121-.183.17-.287a1.6 1.6 0 0 1 .518-.614.089.089 0 0 0 .065-.024.43.43 0 0 1 .173-.106.993.993 0 0 1 .182-.034c.14-.006.278-.007.413-.005.135.003.273.015.413.035.032.011.06.026.08.043.022.019.047.041.074.067zm3.583 3.34c.061-.09.031-.177.031-.275-.091-.245-.152-.45-.303-.666-.06-.03-.09-.118-.182-.06-.222.138-.16.451-.231.667l-.091.176c-.03.118.06.187.151.216.222.03.474.088.625-.059zm1.272 1.155c.151.099.312.157.433.246.121.127-.06.216-.1.303-.273.03-.525-.029-.808.02-.06 0-.121 0-.181-.029-.07 0-.1 0-.162.03a.649.649 0 0 1-.403-.06c-.03 0-.09-.098-.09-.186.06-.147.251-.117.372-.206a.217.217 0 0 0 .061-.118c-.02-.274-.02-.607-.303-.734-.14-.06-.373.03-.524-.06-.162.06-.283.03-.444.09-.09.205-.252.42-.252.656-.03.186.191.245.373.245.03 0 .09.039.12.068.062.089.031.236-.03.236-.12.058-.281.058-.402.058a.464.464 0 0 1-.162.06c-.151 0-.343.058-.495 0-.06 0-.15 0-.221.029-.152.03-.303.03-.434-.04-.121-.088-.151-.264.01-.362.182-.118.434-.089.585-.294.162-.245.222-.48.354-.725v-.089c.12-.087.12-.274.19-.391l.062-.03c.03-.333.221-.578.343-.843.07-.098.1-.186.1-.304 0-.058.091-.088.091-.157 0-.117-.03-.235.04-.323.091-.068.121-.128.212-.186.131-.059.252-.176.354-.294.03-.03.15-.03.181 0 .06.088.121.176.121.275 0 .48.242.872.363 1.332v.118c.03.118.152.186.182.304 0 .274.12.48.221.725v.088c.03.069.061.127.061.216.03.117.09.274.182.332zm7.495.285c.121.059.273.245.121.304-.13.059-.313.03-.473.03-.061-.03-.122 0-.182 0-.222-.07-.404.018-.626-.01-.12-.03-.211-.03-.343-.03-.03 0-.06.03-.09.03-.091-.06-.162-.03-.253-.03-.03-.01-.03.03-.06.03-.06.028-.121-.04-.151-.04-.132-.118 0-.303.121-.293.222-.06.444-.187.474-.393.06-.42.07-.823.01-1.244-.03-.236-.03-.48-.121-.696-.03 0-.06 0-.09.03-.132.117-.132.332-.294.391a9.445 9.445 0 0 0-.433.97c-.222.177-.262.51-.383.785-.03.029-.092.087-.131.147v.088c-.091.088-.212.244-.343.117-.243-.304-.333-.666-.485-1-.121-.186-.191-.362-.312-.548a3.577 3.577 0 0 1-.212-.51c-.09-.186-.152-.363-.313-.46-.03-.03-.09 0-.12.03-.062.214-.092.42-.102.635a5.466 5.466 0 0 0-.07 1.147c.03.089.03.187.06.275.03.088.162.156.252.186.151 0 .313.059.434.118.06.068.06.186.03.186-.161.118-.343.118-.534.088-.273-.068-.525-.039-.777-.039-.151 0-.343.03-.494-.03-.151-.039-.121-.215 0-.303.09-.03.192-.03.252-.089h.09a.347.347 0 0 0 .283-.274c.03-.176.131-.362.161-.539 0-.03-.03-.098-.03-.127 0-.421.071-.814.131-1.235.07-.274.04-.549.04-.814 0-.029-.03-.097-.06-.127-.11-.107-.282-.147-.373-.274-.03-.03-.121.03-.151-.03-.031-.059-.07-.088-.102-.118-.03-.097.041-.126.102-.156.181-.03.343.069.524.04.252-.03.464.058.686.029.282.245.313.607.494.94.03.03.061.03.061.069-.03.147.06.265.121.392v.088a3.6 3.6 0 0 1 .303.578c.03.03.07.059.1.089a2.2 2.2 0 0 0 .273.607c.06.089.151 0 .222-.03.181-.205.211-.45.343-.695l.06-.03v-.088c.03-.117.132-.205.132-.333.03-.118.15-.176.15-.303l.071-.03c.152-.265.222-.568.313-.843.03-.059.06-.117.131-.146.03-.03.03-.089.03-.119.091-.098.151-.156.282-.185.121-.03.243.068.374.039.242-.089.495-.186.746-.03 0 0-.06.06-.101.088-.211.088-.433.177-.463.422 0 .363-.132.755.02 1.088 0 .549.03 1.058.02 1.607.03.088.06.176.06.304.061.274.373.215.595.274zm5.258-.873c.03.06.06.118.06.177.03.274-.1.55 0 .823l-.07.03v.088c-.152.147-.373.088-.555.088a.363.363 0 0 1-.161.059c-.283-.03-.525-.03-.808-.098-.09 0-.151.03-.222.059-.06 0-.12 0-.181-.03-.16 0-.343.03-.504.03-.495-.01-.988.078-1.493-.01-.06 0-.121-.098-.09-.186.13-.235.403-.148.655-.177.12-.03.252-.147.252-.274-.06-.598.07-1.205.01-1.813-.03-.274-.02-.568-.02-.843 0-.088.06-.157.06-.245-.03-.058-.06-.147-.12-.176-.182-.098-.374-.04-.596-.069-.121-.029-.272-.127-.211-.274.03-.059.09-.117.15-.117.505-.03 1 .038 1.504-.02.06 0 .121 0 .181.029h.222c.464.01.959-.02 1.432.01.06.03.182.03.212.098.121.264-.09.54-.03.813.03.059.03.118.03.177-.04.068-.04.156-.1.186-.122.03-.182-.03-.212-.128-.091-.264-.222-.538-.434-.666-.313-.186-.656-.128-.999-.098-.464.03-.252.608-.343.941-.04.147-.04.333-.04.51.03.185.313.244.464.127.161-.088.343 0 .504-.118.061-.088.182-.157.182-.245.01-.117.01-.236.1-.333.061-.03.122-.089.223-.059.06.03.12.098.12.186-.03.059-.06.118-.1.177 0 .068.03.128.03.157-.03.362-.06.725-.1 1.117-.031.087-.122.117-.213.087-.06-.058-.09-.185-.09-.274-.03-.117-.09-.274-.192-.303-.212-.118-.464-.06-.716-.128-.12 0-.182.128-.182.216 0 .205-.01.392.02.608.03.235-.182.539.03.725.06.058.152.058.253.088.09.03.151-.03.211-.059.061 0 .162.059.223.03.09-.03.181.068.282.039.03-.03.091-.06.121-.06.282 0 .625-.029.777-.303.1-.205.191-.422.383-.569h.091zm3.733-1.087c.283-.303.383-.725.232-1.118v-.087c-.06-.187-.252-.275-.433-.344-.222-.03-.435-.03-.626.147.03.128-.1.246 0 .364-.1.244-.1.49-.07.764.03.118.06.235.06.362.03.147.18.206.343.177.182-.06.343-.147.494-.265zm1.856 1.95c.09.059.212.176.121.304-.06.059-.182.059-.283.088-.464.03-.927-.068-1.402-.04-.181 0-.272-.186-.181-.332.03-.059.161-.088.191-.187.03-.117-.06-.205-.12-.303a1.687 1.687 0 0 1-.404-.539l-.06-.01c-.061-.147-.222-.206-.343-.275-.121-.029-.222.06-.222.157 0 .334-.061.667.03 1 .06.147.242.117.373.176.09.07.152.186.06.245-.252.118-.564.06-.816.06-.122-.03-.283 0-.404.029-.03 0-.03-.04-.06-.04-.162.06-.343.03-.495.03-.1-.03-.16-.089-.16-.176 0-.04.07-.128.13-.128.151 0 .343 0 .404-.117a.764.764 0 0 0 .13-.393c0-.176-.06-.392-.03-.578v-.45c-.03-.089-.03-.206-.03-.305.071-.303.041-.568.041-.872v-.363c0-.029.03-.058.03-.087-.03-.069-.061-.157-.121-.216s-.121-.059-.182-.098c-.221 0-.464 0-.565-.216 0-.029.04-.058.071-.088.212-.088.434.01.646-.049.383-.088.726-.088 1.1-.118.373 0 .715 0 1.089.099.181.03.433.098.524.333.03.03.06.03.09.03v.097c.061.088.122.147.122.235 0 .373.09.706-.131 1.03-.061.058-.091.097-.151.156-.04 0-.072 0-.102.03-.12.117-.312.088-.373.206-.161.215.121.362.242.548.03.03.03.088.06.118.071.03.101.088.162.127.06.059.09.147.152.206v.058c.06.157.181.246.312.344.121.058.242.117.374.216.06.029.12.058.181.058zm2.907-3.234c-.121.578 0 1.088-.132 1.666 0 .089-.03.206.03.304 0 .03 0 .088-.03.117-.04.334-.01.637.081.941.06.304.505.117.746.274.061.03.061.188-.03.275-.686.02-1.402.108-2.088.039-.06 0-.191.03-.252-.03-.03-.058-.03-.176 0-.205a.772.772 0 0 1 .535-.147c.03 0 .09-.03.121-.069.231-1.048.141-2.048.151-3.077 0-.058-.06-.127-.12-.186-.031-.03-.061-.059-.092-.059-.13 0-.282 0-.414-.068-.09-.089-.272-.206-.15-.363.372.01.715.01 1.088-.02h.222c.122.03.222.03.343.03.061-.03.152-.059.222-.088.151 0 .343-.059.464.04.091.117.061.362-.1.42-.152.059-.373.03-.525.118-.03.03-.06.06-.07.088zm5.175 2.44c.04-.088.1-.215.192-.156.12.097.151.303.03.43-.091.148-.162.266-.283.393-.16.206-.312.391-.565.411a3.54 3.54 0 0 1-.968.03c-.211-.03-.403-.186-.584-.305 0-.029 0-.067-.031-.097-.313-.245-.525-.578-.494-.94 0-.09-.091-.148-.121-.206-.03-.402-.03-.795.13-1.157v-.117c.132-.119.102-.304.253-.393v-.088c0-.03.03-.03.06-.059.071-.156.132-.304.323-.362l.03-.059c.212-.157.464-.215.717-.304.12-.03.212.01.343.01.252-.03.464.088.715.157.122.03.183-.128.313-.157.061-.03.122.039.122.069.06.48.09 1-.07 1.479 0 .03-.132.06-.162-.03-.06-.302-.122-.577-.363-.793-.03-.03-.03-.088-.061-.118-.161-.186-.343-.274-.595-.244-.182.019-.373.058-.495.206-.252.391-.352.842-.382 1.293 0 .098-.031.186-.031.304-.01.03.06.088.06.127-.04.147.091.236.122.363.06.264.242.608.525.725l.03.059c.181.069.343.156.524.127.222-.058.373-.206.505-.392.03 0 .06 0 .09-.03a.598.598 0 0 1 .121-.175zm3.915-.637c.06-.088.03-.176.03-.274-.09-.245-.15-.45-.302-.666-.061-.03-.091-.118-.182-.06-.222.138-.161.451-.232.667l-.09.176c-.03.118.06.187.15.216.222.03.474.088.626-.059zm1.271 1.156c.151.099.312.157.434.246.12.127-.06.216-.101.303-.273.03-.525-.029-.807.02-.06 0-.122 0-.182-.029-.07 0-.1 0-.161.03a.65.65 0 0 1-.404-.06c-.03 0-.09-.098-.09-.186.06-.147.252-.117.372-.206a.218.218 0 0 0 .061-.118c-.02-.274-.02-.607-.302-.734-.141-.06-.373.03-.525-.06-.161.06-.282.03-.443.09-.091.205-.253.42-.253.656-.03.186.192.245.374.245.03 0 .09.039.12.068.061.089.031.236-.03.236-.121.058-.282.058-.403.058a.463.463 0 0 1-.162.06c-.151 0-.343.058-.494 0-.06 0-.151 0-.222.029-.151.03-.303.03-.433-.04-.121-.088-.152-.264.01-.362.182-.118.433-.089.585-.294.161-.245.221-.48.353-.725v-.089c.12-.087.12-.274.191-.391l.06-.03c.031-.333.223-.578.344-.843.07-.098.1-.186.1-.304 0-.058.092-.088.092-.157 0-.117-.031-.235.04-.323.09-.068.12-.128.212-.186.13-.059.252-.176.352-.294.031-.03.152-.03.182 0 .06.088.122.176.122.275 0 .48.241.872.363 1.332v.118c.03.118.15.186.18.304 0 .274.122.48.223.725v.088c.03.069.06.127.06.216.03.117.091.274.182.332z"/>
</svg>
